<?xml version="1.0" standalone="no"?>
<!DOCTYPE svg PUBLIC "-//W3C//DTD SVG 20010904//EN"
 "http://www.w3.org/TR/2001/REC-SVG-20010904/DTD/svg10.dtd">
<svg version="1.0" xmlns="http://www.w3.org/2000/svg"
 width="696.000000pt" height="564.000000pt" viewBox="0 0 696.000000 564.000000"
 preserveAspectRatio="xMidYMid meet">

<g transform="translate(0.000000,564.000000) scale(0.100000,-0.100000)"
fill="#000000" stroke="none">
<path d="M3767 4920 l6 -31 -48 26 c-77 40 -137 33 -197 -23 -39 -36 -37 -53
4 -41 45 13 135 11 144 -2 8 -14 -14 -29 -42 -29 -12 0 -32 -8 -45 -18 l-22
-19 41 -7 c23 -3 42 -11 42 -16 0 -23 -51 -106 -76 -124 -26 -19 -28 -19 -61
0 -19 10 -49 39 -66 64 -88 130 -151 180 -227 179 -97 -2 -173 -1 -250 2 -76
4 -96 0 -187 -31 -57 -19 -103 -37 -103 -40 0 -3 30 -21 68 -40 46 -24 102
-68 180 -143 63 -60 130 -116 150 -125 28 -11 60 -14 127 -11 50 2 132 3 184
3 103 0 121 -10 121 -66 l0 -28 -77 5 -78 4 73 -11 74 -11 -7 -45 c-10 -70
-12 -72 -64 -71 -72 1 -115 20 -119 54 -3 25 -6 27 -37 22 -26 -4 -39 0 -58
17 -25 24 -174 66 -231 66 -61 0 -97 -12 -106 -34 -6 -16 -25 -27 -67 -39 -38
-11 -76 -31 -113 -62 -30 -25 -59 -45 -65 -45 -5 0 -3 -5 5 -10 13 -9 11 -13
-9 -31 -17 -14 -27 -17 -35 -9 -7 7 -4 14 9 24 19 13 18 14 -7 9 -23 -4 -27
-1 -42 44 -9 26 -25 91 -37 143 -12 52 -23 105 -26 118 -13 55 -102 2 -122
-74 -14 -56 -33 -278 -26 -316 3 -18 2 -38 -2 -44 -5 -5 -44 -37 -88 -71 -221
-168 -397 -373 -517 -604 -52 -99 -130 -300 -148 -381 -10 -43 -18 -58 -34
-62 -12 -3 -124 -10 -251 -16 -126 -5 -267 -12 -312 -16 l-83 -6 0 -32 c0 -56
70 -992 76 -1025 4 -17 9 -33 13 -35 3 -2 146 3 316 10 171 7 335 13 365 13
l55 1 53 -88 c91 -149 133 -203 252 -323 303 -304 637 -472 1080 -544 123 -19
412 -20 540 0 432 65 797 255 1100 572 125 131 175 198 253 340 60 109 71 150
14 52 -130 -224 -268 -397 -415 -520 -430 -359 -958 -507 -1515 -424 -537 80
-1031 406 -1298 855 -23 39 -40 73 -37 75 2 2 29 7 60 11 l56 6 31 -43 c18
-24 58 -80 90 -124 240 -332 604 -562 1041 -657 92 -20 133 -23 340 -23 260 0
356 13 550 75 119 38 327 140 446 219 202 133 381 327 504 542 34 60 67 109
74 109 6 0 19 -9 29 -20 23 -27 44 -25 51 5 7 28 36 34 36 8 0 -15 2 -14 19 3
18 19 40 21 401 34 l383 13 -6 161 c-4 89 -14 283 -22 431 -9 149 -20 325 -23
392 -4 67 -10 125 -15 129 -4 4 -150 2 -324 -4 -174 -7 -318 -10 -321 -8 -2 3
-17 40 -32 83 -59 164 -140 315 -249 458 -31 41 -48 72 -43 79 5 6 24 31 44
56 49 62 68 103 68 145 0 19 -3 35 -6 35 -3 0 -25 -13 -49 -30 -59 -40 -63
-38 -21 12 62 72 40 100 -44 57 -51 -27 -60 -19 -26 21 14 17 26 38 26 46 0
26 -54 15 -107 -21 -29 -19 -56 -35 -60 -35 -4 1 -17 15 -28 33 -15 23 -39 39
-90 60 -38 15 -71 30 -73 32 -18 17 155 110 192 103 122 -24 -30 148 -214 242
-23 12 -74 28 -114 36 -39 8 -76 21 -82 29 -16 21 -41 18 -99 -10 -54 -27 -75
-21 -75 20 0 38 -11 55 -34 55 -26 0 -90 74 -92 105 -1 11 -2 37 -3 58 -1 25
-6 37 -15 37 -8 0 -17 13 -21 29 -9 41 -30 58 -51 40 -13 -10 -19 -8 -40 14
-14 15 -34 27 -44 27 -16 0 -19 -5 -13 -30z m-152 -20 c-3 -5 -12 -10 -18 -10
-7 0 -6 4 3 10 19 12 23 12 15 0z m96 -6 c17 -8 43 -30 59 -47 31 -36 39 -33
50 15 7 32 7 32 15 -19 8 -53 20 -64 43 -41 9 9 12 9 12 0 0 -7 7 -12 16 -12
14 0 14 -2 3 -16 -11 -14 -11 -18 1 -28 8 -6 16 -17 18 -25 2 -8 14 -23 27
-33 14 -11 25 -27 25 -37 0 -23 20 -41 46 -41 24 0 34 -17 34 -58 0 -15 5 -34
10 -42 8 -13 15 -12 50 8 22 12 40 18 40 12 0 -6 32 -10 80 -10 89 0 179 -28
260 -80 52 -34 105 -79 99 -83 -9 -8 -287 12 -322 23 -29 9 -42 8 -53 0 -11
-10 -24 -7 -62 13 -70 36 -118 44 -142 22 -24 -22 -44 -9 -65 42 -9 20 -21 33
-32 33 -10 0 -24 9 -31 20 -13 22 -46 26 -86 10 -23 -8 -28 -6 -42 23 -9 18
-22 35 -28 39 -23 16 -63 7 -87 -18 -44 -48 -57 -49 -101 -13 -43 34 -168 88
-205 89 -12 0 -93 36 -180 80 -126 65 -175 84 -243 98 -66 12 -79 18 -60 23
45 13 204 9 265 -6 81 -19 115 -19 115 1 0 13 7 11 41 -8 26 -14 66 -56 111
-115 51 -67 81 -97 112 -111 61 -29 90 -31 94 -7 2 11 13 27 25 36 11 9 28 36
36 60 15 40 20 44 54 47 47 4 49 25 5 53 -28 17 -29 19 -8 14 14 -4 35 -16 47
-27 29 -27 47 -15 29 20 -21 40 -67 80 -111 96 -30 11 -34 15 -17 15 13 1 37
-6 53 -15z m-531 -229 c35 -19 40 -24 23 -25 -13 0 -23 -3 -23 -7 0 -5 -15
-25 -33 -47 l-33 -39 -43 23 c-24 12 -40 25 -35 28 5 4 24 26 43 50 18 23 38
42 44 42 7 -1 32 -12 57 -25z m135 -59 c35 -12 40 -18 40 -45 0 -17 -3 -31 -7
-31 -5 0 -24 0 -43 0 -40 0 -47 20 -17 53 16 19 16 20 0 14 -12 -4 -18 -1 -18
8 0 18 -4 18 45 1z m406 -68 c6 -13 23 -34 37 -46 l27 -24 -30 8 c-63 16 -87
9 -130 -39 -44 -48 -60 -89 -71 -179 -6 -48 -10 -58 -25 -58 -26 0 -24 -16 5
-35 18 -12 45 -15 103 -14 61 2 92 -3 144 -21 l66 -24 49 25 c52 25 58 46 12
42 -26 -3 -26 -2 -16 30 14 42 22 140 14 183 -4 18 -22 50 -41 70 -39 41 -41
44 -22 44 18 -1 70 -48 110 -101 37 -49 37 -45 12 -156 -7 -31 -6 -33 19 -33
14 0 54 -11 89 -25 50 -21 90 -28 202 -35 77 -6 156 -13 175 -16 78 -13 193
-94 134 -94 -11 0 -14 -5 -10 -16 12 -32 19 -184 8 -184 -6 0 -12 6 -15 13 -7
20 -32 -12 -45 -58 -6 -22 -18 -49 -26 -60 -15 -19 -15 -18 -16 18 0 42 -8 46
-34 16 -16 -20 -23 -21 -74 -13 -32 5 -133 9 -225 9 -179 0 -179 0 -193 53 -5
18 3 31 42 64 27 23 66 60 87 82 35 37 42 40 101 44 61 4 63 3 110 -37 26 -23
51 -41 57 -41 22 0 6 36 -36 78 -41 41 -48 44 -83 39 -21 -4 -77 -10 -125 -13
-48 -4 -87 -9 -87 -11 0 -2 5 -12 12 -23 17 -27 -16 -60 -103 -102 -70 -33
-84 -52 -50 -63 24 -7 54 -77 37 -86 -6 -4 -49 -17 -96 -29 -93 -25 -140 -45
-140 -60 0 -16 41 -11 86 9 44 20 130 41 169 41 20 0 25 -7 34 -48 14 -67 6
-92 -28 -87 -178 28 -241 28 -241 -1 0 -11 17 -14 75 -14 77 0 175 -16 175
-29 0 -18 -70 -72 -122 -95 -37 -17 -58 -32 -58 -42 0 -15 -10 -16 -87 -10
-104 8 -179 38 -213 85 -16 24 -26 29 -33 22 -8 -8 -6 -19 6 -41 17 -28 17
-29 0 -38 -65 -35 -285 -38 -297 -5 -4 9 -16 13 -33 11 -27 -3 -28 -1 -31 45
-3 42 -1 47 17 47 23 0 29 25 9 33 -10 4 -10 7 0 18 6 7 12 25 12 40 0 41 15
44 57 11 56 -43 118 -63 214 -69 109 -7 145 8 154 65 16 97 89 191 166 213 24
7 51 19 59 27 13 12 13 15 -3 25 -10 7 -46 33 -80 59 -72 55 -170 84 -263 76
-30 -3 -51 -1 -47 3 21 19 111 39 179 39 56 0 75 3 72 13 -3 7 -31 14 -74 17
-103 7 -52 20 82 20 71 0 114 4 114 10 0 21 -56 32 -139 27 -77 -5 -94 -10
-177 -52 -81 -42 -98 -47 -138 -43 -45 5 -196 75 -196 90 0 4 25 8 55 8 58 0
70 11 33 31 -48 26 -258 -29 -258 -68 0 -19 30 -28 49 -15 50 37 57 36 120 -6
34 -22 86 -48 116 -57 30 -8 55 -20 55 -25 0 -6 -21 -20 -47 -32 -65 -30 -133
-97 -133 -131 0 -14 -4 -29 -10 -32 -9 -6 -45 11 -88 42 -22 15 -23 15 -29 -6
-9 -35 -28 -9 -64 85 -33 88 -51 103 -71 59 -18 -41 -29 -17 -22 49 8 75 -4
90 -43 55 l-25 -24 7 25 c17 55 56 118 94 153 23 20 41 39 41 41 0 19 -91 8
-152 -19 -39 -16 -15 13 30 38 83 45 154 60 244 52 65 -6 80 -5 76 6 -3 8 -29
21 -59 31 -68 21 -45 23 41 2 69 -16 163 -64 248 -127 30 -21 73 -45 97 -54
39 -13 47 -13 74 2 43 22 62 55 71 127 12 94 19 113 48 130 15 9 43 33 61 52
41 42 47 43 62 14z m-1211 -183 c59 -235 125 -404 254 -649 31 -59 54 -112 51
-117 -4 -5 -15 -9 -26 -9 -24 0 -68 60 -119 160 -21 41 -46 86 -57 99 -18 22
-20 23 -68 8 -67 -19 -98 -8 -124 46 -33 69 -44 175 -38 362 4 94 11 187 17
207 11 38 48 74 62 60 4 -4 26 -80 48 -167z m1214 20 c-1 -95 -11 -155 -25
-155 -6 0 -13 9 -16 20 -8 30 -28 19 -31 -18 -3 -29 -6 -32 -39 -32 l-35 0 4
68 c2 37 12 84 22 105 26 53 74 99 100 95 19 -3 21 -9 20 -83z m121 61 c59
-59 36 -264 -32 -274 -17 -3 -21 4 -26 38 -7 51 -12 57 -33 39 -16 -13 -17
-10 -11 36 14 122 38 185 68 185 6 0 21 -11 34 -24z m-1055 -183 c0 -4 -15
-29 -32 -55 -44 -65 -148 -116 -148 -73 0 8 9 15 19 15 20 0 37 32 27 48 -3 5
23 23 57 40 66 33 77 36 77 25z m1966 -213 c-52 -62 -25 -85 54 -45 29 14 54
24 57 21 3 -3 -13 -26 -36 -51 -22 -24 -41 -51 -41 -60 0 -23 41 -18 82 10 43
29 48 30 48 10 0 -31 -39 -92 -94 -148 -59 -60 -98 -83 -183 -111 -85 -28
-135 -72 -254 -224 -24 -31 -27 -32 -52 -21 -49 22 -40 36 141 229 23 25 45
55 48 67 3 12 21 33 38 47 25 19 37 40 50 86 10 34 15 74 11 89 -5 25 0 33 37
64 51 41 110 78 116 72 3 -2 -7 -18 -22 -35z m-2413 13 c3 -10 8 -38 11 -63 6
-43 5 -46 -25 -64 -17 -10 -76 -62 -131 -115 -203 -194 -358 -432 -433 -661
-16 -49 -38 -94 -52 -107 -12 -12 -23 -29 -23 -36 0 -15 -66 -30 -84 -19 -22
12 41 215 115 371 89 188 212 362 356 503 84 83 237 208 254 208 4 0 10 -8 12
-17z m340 -30 c-7 -71 -8 -72 -26 -18 -14 38 -14 50 -5 57 28 17 36 8 31 -39z
m119 -150 c16 -16 18 -16 37 1 18 16 19 15 41 -28 30 -63 72 -106 104 -106 21
0 26 5 26 25 0 14 4 25 9 25 14 0 61 -41 61 -54 0 -6 -21 -29 -46 -50 -37 -31
-50 -37 -72 -31 -15 4 -54 10 -87 13 l-60 7 -68 133 c-60 117 -66 132 -48 132
11 0 28 12 38 27 l18 26 15 -51 c8 -28 23 -59 32 -69z m784 92 c67 -19 83 -38
52 -59 -12 -9 -26 -16 -31 -16 -4 0 -20 -8 -34 -17 -22 -15 -53 -18 -158 -20
-71 -2 -159 -4 -195 -5 -58 -3 -65 -1 -68 17 -4 38 122 102 233 119 45 6 143
-3 201 -19z m-1188 -109 c27 -45 77 -62 138 -47 25 6 49 9 54 6 12 -7 90 -149
90 -164 0 -6 -13 -14 -30 -17 -16 -4 -35 -13 -41 -20 -9 -12 -4 -14 32 -14
l43 0 -27 -27 c-58 -62 -84 -168 -51 -217 10 -16 12 -26 5 -31 -37 -22 13
-147 90 -226 34 -33 59 -62 57 -64 -2 -2 -183 -10 -403 -19 -220 -9 -431 -18
-468 -20 l-68 -5 7 35 c5 30 4 34 -15 34 -26 0 -23 17 20 128 101 256 261 475
484 660 28 23 53 42 57 42 3 0 15 -15 26 -34z m1052 -94 c0 -13 -12 -22 -22
-16 -10 6 -1 24 13 24 5 0 9 -4 9 -8z m930 -47 c12 -8 -40 -47 -112 -86 -48
-24 -48 -24 -48 10 0 39 -10 44 -46 20 -38 -25 -44 -24 -44 6 0 14 -5 25 -11
25 -6 0 -25 -11 -43 -25 -41 -31 -50 -31 -64 0 -18 40 -14 53 16 59 41 7 338
0 352 -9z m493 -49 c93 -123 243 -412 262 -503 6 -32 5 -33 -24 -33 -29 0 -43
14 -21 22 19 6 -1 45 -22 43 -25 -2 -46 -45 -23 -45 20 0 19 -16 -1 -24 -9 -3
-17 -6 -19 -6 -1 0 -13 26 -25 58 -64 159 -206 411 -256 453 -26 21 -17 42 16
37 20 -3 30 0 30 9 0 7 5 13 11 13 6 0 9 6 6 14 -6 14 1 26 12 26 3 0 28 -29
54 -64z m-448 5 c-3 -5 -1 -13 5 -16 6 -4 -15 -35 -49 -73 l-59 -66 -80 -1
-80 -1 -17 35 c-16 35 -16 36 7 54 l23 19 5 -28 c5 -23 10 -28 29 -26 34 3 84
29 144 73 49 36 85 51 72 30z m-1471 -46 c39 -19 57 -42 75 -98 23 -68 -9
-147 -59 -147 -26 0 -25 15 2 68 l23 43 -37 35 c-21 19 -48 34 -60 34 -13 0
-27 4 -33 8 -8 6 -12 46 -6 74 2 11 58 0 95 -17z m1772 -47 c91 -124 216 -355
230 -427 l6 -29 -208 -6 c-115 -4 -231 -9 -258 -12 -47 -5 -48 -4 -42 18 33
124 28 201 -19 256 -14 17 -25 37 -25 46 0 22 146 173 190 196 59 32 75 27
126 -42z m-1976 -12 c9 -12 7 -21 -11 -45 -12 -17 -19 -34 -16 -38 4 -4 32 5
63 20 67 33 105 34 140 3 27 -23 28 -24 11 -49 -37 -57 -150 -117 -221 -117
-19 0 -45 9 -60 21 -21 16 -26 29 -26 64 0 56 11 83 48 123 33 35 53 40 72 18z
m1287 -108 c54 -57 93 -121 93 -155 0 -38 -34 -91 -66 -103 -42 -16 -96 -11
-149 14 -102 48 -207 142 -152 135 32 -4 65 2 83 16 15 12 16 16 5 24 -11 7
-9 11 8 21 27 14 46 0 93 -68 16 -23 33 -40 39 -37 20 13 7 52 -33 93 l-43 43
35 29 c19 16 37 30 40 30 3 0 24 -19 47 -42z m237 26 c25 -10 19 -26 -6 -19
-31 10 -47 25 -26 25 9 0 23 -3 32 -6z m-59 -41 c37 -18 40 -24 25 -52 -12
-23 -76 -37 -96 -20 -19 15 -18 48 3 71 20 22 23 22 68 1z m105 -53 c34 -26
17 -45 -28 -29 -35 12 -34 11 -26 33 8 21 23 20 54 -4z m103 -49 c20 -34 22
-86 5 -97 -18 -11 -116 -27 -163 -27 -23 0 -55 8 -73 17 -27 14 -32 22 -32 52
0 28 5 36 28 45 26 10 83 7 129 -6 16 -5 27 0 44 19 29 33 41 33 62 -3z
m-1491 -9 c26 -22 39 -77 27 -112 -13 -37 -102 -98 -154 -105 -56 -8 -103 19
-137 81 -15 27 -28 64 -28 82 l0 32 73 1 c53 0 85 6 122 23 52 24 68 23 97 -2z
m1306 -144 c51 -11 132 -3 189 19 14 5 15 1 10 -30 -15 -92 -66 -143 -154
-153 -98 -12 -203 46 -203 112 0 38 45 76 80 68 14 -3 49 -10 78 -16z m-1197
-70 c33 -48 38 -62 28 -69 -31 -20 -49 -3 -49 45 0 13 -9 35 -20 49 -21 26
-27 53 -10 42 6 -3 29 -33 51 -67z m-61 -14 c20 -59 -9 -124 -54 -124 -12 1
-35 9 -52 18 -36 19 -98 71 -93 76 2 2 29 11 59 19 30 9 64 23 75 31 33 25 52
19 65 -20z m2822 -244 c38 -596 48 -794 41 -801 -5 -5 -332 -20 -728 -34 -396
-14 -958 -34 -1250 -45 -291 -11 -591 -22 -665 -25 -74 -3 -189 -7 -255 -10
-402 -17 -1873 -66 -1903 -63 l-37 3 -26 360 c-15 198 -33 431 -39 518 -7 87
-11 160 -8 162 4 5 605 35 695 35 52 0 54 -1 48 -22 -4 -13 -10 -26 -14 -30
-3 -3 -154 -12 -336 -18 -181 -7 -333 -15 -337 -19 -4 -4 -1 -87 7 -186 8 -99
24 -308 36 -465 11 -157 22 -287 25 -289 2 -2 178 4 391 13 688 29 767 30 833
16 52 -11 69 -11 118 3 41 12 141 19 362 27 168 7 346 13 395 15 50 3 162 7
250 9 88 3 357 13 598 22 331 13 454 14 504 6 53 -9 73 -8 107 4 31 11 173 19
566 34 289 11 545 21 570 22 l45 3 -3 95 c-4 107 -26 463 -44 708 l-11 162
-126 -6 c-69 -3 -205 -9 -301 -14 -96 -4 -220 -9 -275 -10 -55 0 -190 -5 -300
-10 -110 -5 -233 -10 -273 -10 -70 0 -72 1 -62 20 6 12 21 25 33 31 24 11
1066 57 1242 55 l110 -1 17 -265z m-1728 205 c50 -66 137 -91 237 -70 l34 7
-34 -36 c-43 -45 -87 -59 -162 -54 -70 5 -126 43 -148 101 -12 32 -12 40 3 62
22 34 39 32 70 -10z m-104 -46 c0 -25 -16 -31 -76 -27 l-49 3 55 26 c60 28 70
28 70 -2z m-2180 1 c0 -24 -52 -110 -66 -110 -12 0 -14 8 -8 38 12 66 22 82
49 82 14 0 25 -5 25 -10z m1340 -20 c34 -34 24 -40 -66 -40 l-85 0 21 30 c18
26 28 30 66 30 31 0 50 -6 64 -20z m-303 -12 c18 -13 33 -26 33 -30 0 -9 -133
-16 -495 -28 -170 -6 -372 -13 -447 -17 -122 -5 -138 -4 -138 10 0 37 24 44
187 51 87 3 210 9 273 12 576 29 546 29 587 2z m997 -101 c56 -31 87 -94 87
-179 1 -68 -9 -97 -44 -136 l-21 -22 36 -33 c41 -37 58 -86 58 -166 0 -122
-84 -200 -217 -201 -26 0 -34 5 -37 23 -3 12 -10 130 -16 262 -5 132 -13 293
-16 358 l-7 117 69 0 c53 0 78 -6 108 -23z m-580 -3 c25 -25 20 -76 -14 -122
-17 -23 -35 -42 -40 -42 -14 0 -12 12 5 34 21 28 19 45 -10 68 -14 11 -25 26
-25 33 0 20 28 45 50 45 10 0 26 -7 34 -16z m-412 -59 c4 -27 11 -176 16 -330
6 -190 12 -287 21 -303 11 -21 9 -26 -14 -48 -32 -30 -41 -30 -57 -1 -12 21
-14 67 -34 555 l-7 184 34 -4 c33 -3 34 -5 41 -53z m-1054 13 c9 -13 35 -161
87 -513 14 -93 27 -184 30 -201 5 -29 3 -32 -27 -37 -45 -6 -58 7 -58 60 0 64
-11 80 -54 75 l-35 -4 -7 -70 -7 -69 -36 3 -36 3 4 60 c2 33 13 202 25 375
l21 314 25 7 c39 11 57 10 68 -3z m3377 -88 c6 -37 4 -42 -35 -79 l-42 -39 4
-214 3 -213 -27 -3 c-22 -3 -30 2 -37 20 -4 13 -11 120 -15 238 -4 118 -9 231
-12 250 -7 46 16 80 43 64 10 -6 22 -25 27 -43 10 -37 22 -40 31 -8 10 30 34
67 44 67 5 0 12 -18 16 -40z m-496 8 c14 -38 31 -571 20 -612 -17 -61 -87 -91
-153 -66 -16 6 -26 17 -26 29 0 25 18 36 53 32 38 -4 57 15 57 55 0 37 -10 43
-30 18 -23 -27 -63 -13 -83 29 -44 94 -48 340 -7 436 21 47 30 57 74 77 64 30
84 30 95 2z m224 2 c34 -27 48 -74 48 -155 0 -78 -12 -102 -77 -148 -47 -33
-51 -44 -33 -98 17 -48 56 -87 93 -91 25 -2 32 -8 34 -29 4 -37 -19 -52 -68
-44 -82 14 -127 87 -151 245 -12 79 -5 222 12 268 26 69 90 93 142 52z m-551
-17 c9 -10 19 -28 22 -40 10 -33 21 -28 41 17 23 51 49 50 53 -1 2 -29 -3 -40
-32 -67 -49 -45 -57 -83 -46 -227 5 -66 10 -148 10 -183 l0 -63 -37 3 -38 3
-7 210 c-5 116 -12 234 -18 264 -8 45 -7 57 8 77 21 28 25 29 44 7z m-268 -65
c3 -40 8 -147 11 -238 7 -183 18 -220 57 -199 20 11 21 16 14 158 -3 80 -9
192 -12 249 l-7 102 36 0 c20 0 38 -4 42 -9 3 -5 9 -117 14 -248 5 -131 12
-245 16 -254 4 -10 -3 -27 -19 -45 l-26 -29 -20 24 -21 24 -27 -26 c-50 -48
-92 -27 -106 53 -9 52 -27 491 -20 501 3 5 18 9 34 9 28 0 28 -1 34 -72z
m-666 46 c29 -8 33 -64 4 -64 -55 0 -54 -54 3 -232 48 -149 54 -201 30 -248
-30 -58 -135 -63 -135 -6 0 19 7 25 35 30 49 9 59 38 39 111 -8 31 -19 66 -25
77 -29 54 -59 166 -59 221 0 51 4 62 29 88 30 30 40 33 79 23z m-354 -20 c24
-15 55 -81 75 -159 6 -22 11 -96 11 -165 -1 -144 -18 -211 -63 -244 -26 -19
-30 -19 -55 -5 -66 37 -96 156 -90 357 3 107 7 134 26 169 20 38 44 62 65 63
4 0 18 -7 31 -16z m-405 -19 c41 -21 65 -78 65 -155 1 -81 -20 -122 -79 -158
-49 -30 -55 -49 -31 -106 22 -52 51 -76 92 -76 35 0 35 -1 32 -37 -3 -37 -5
-38 -43 -41 -77 -5 -144 67 -165 179 -15 74 -15 275 -1 326 12 44 51 83 83 83
10 0 32 -7 47 -15z m-205 -57 c11 -121 25 -533 20 -560 -11 -49 -48 -73 -114
-73 -67 0 -75 5 -66 40 6 22 12 25 50 25 39 0 45 3 56 30 7 16 10 37 6 46 -5
14 -9 13 -32 -5 -15 -12 -33 -21 -40 -21 -42 0 -84 148 -84 296 0 184 58 283
167 284 31 0 31 0 37 -62z m-305 31 c23 -25 28 -57 36 -229 3 -69 8 -171 11
-227 l6 -103 -35 0 c-20 0 -38 4 -41 8 -2 4 -8 109 -12 232 -4 124 -11 235
-15 248 -10 26 -44 29 -58 5 -5 -11 -5 -58 0 -118 5 -55 10 -163 11 -240 l3
-140 -32 -3 c-31 -3 -31 -3 -37 50 -3 29 -8 132 -10 228 -3 96 -10 192 -15
212 -7 32 -6 42 11 64 l20 25 24 -22 24 -22 24 26 c30 33 58 34 85 6z m2751
-683 c0 -19 -118 -193 -203 -300 -68 -85 -223 -228 -318 -293 -533 -364 -1276
-396 -1815 -78 -141 83 -268 182 -370 287 -107 110 -234 285 -212 292 7 3 418
19 913 36 495 18 1103 40 1350 50 598 23 655 24 655 6z"/>
<path d="M3717 3774 c-14 -15 -6 -34 14 -34 14 0 19 5 17 17 -3 18 -20 27 -31
17z"/>
<path d="M3640 3485 c0 -8 5 -15 10 -15 6 0 10 7 10 15 0 8 -4 15 -10 15 -5 0
-10 -7 -10 -15z"/>
<path d="M3537 3484 c-15 -15 -7 -45 11 -42 9 2 17 12 17 22 0 20 -16 31 -28
20z"/>
<path d="M2250 3975 c-16 -19 -5 -45 19 -45 25 0 33 34 11 48 -14 9 -21 8 -30
-3z"/>
<path d="M2093 3835 c-18 -19 -5 -47 20 -43 23 3 32 38 14 50 -16 10 -20 10
-34 -7z"/>
<path d="M1952 3679 c-16 -25 -7 -39 24 -39 29 0 34 34 6 49 -14 7 -21 5 -30
-10z"/>
<path d="M1834 3505 c-9 -22 13 -44 36 -38 21 6 24 12 14 37 -8 20 -43 21 -50
1z"/>
<path d="M1736 3323 c-4 -9 -1 -23 7 -30 18 -18 53 6 44 31 -8 21 -43 21 -51
-1z"/>
<path d="M1666 3133 c-10 -25 23 -48 41 -30 8 7 11 21 7 30 -8 22 -40 22 -48
0z"/>
<path d="M4867 3538 c-7 -26 -8 -24 20 -32 16 -5 23 -2 28 13 8 26 -1 41 -24
41 -11 0 -21 -9 -24 -22z"/>
<path d="M4988 3382 c-24 -5 -31 -33 -11 -47 20 -15 58 2 44 20 -5 5 -10 15
-12 20 -2 6 -11 9 -21 7z"/>
<path d="M3750 2706 c0 -63 4 -117 8 -120 17 -10 52 26 62 65 14 51 5 110 -22
144 -40 51 -48 35 -48 -89z"/>
<path d="M3765 2378 c4 -62 10 -117 14 -121 4 -4 20 2 34 13 24 19 27 28 27
84 0 61 -13 95 -48 124 -31 24 -34 12 -27 -100z"/>
<path d="M1725 2729 c-3 -8 -4 -107 -3 -219 l3 -205 24 -3 c13 -2 27 0 31 5
12 11 -25 412 -38 425 -8 8 -13 7 -17 -3z"/>
<path d="M4568 2676 c-33 -32 -40 -90 -31 -238 10 -146 21 -178 58 -164 16 6
17 22 10 180 -4 96 -10 188 -14 206 -6 31 -7 32 -23 16z"/>
<path d="M4809 2678 c-13 -32 -17 -154 -4 -166 4 -4 18 6 31 21 27 32 33 106
12 152 -15 33 -23 32 -39 -7z"/>
<path d="M3004 2618 c-5 -7 -10 -68 -12 -135 -3 -90 0 -141 13 -198 31 -140
60 -65 51 135 -6 157 -28 238 -52 198z"/>
<path d="M2580 2601 c-5 -11 -10 -54 -10 -95 0 -60 3 -76 15 -76 25 0 49 49
48 100 -1 74 -30 113 -53 71z"/>
<path d="M2323 2573 c-16 -24 -18 -46 -15 -178 3 -162 12 -198 51 -203 l24 -4
-6 184 c-4 100 -9 192 -10 202 -6 31 -24 30 -44 -1z"/>
<path d="M3982 1899 c-19 -6 -41 -23 -53 -42 -18 -29 -20 -43 -14 -142 7 -129
17 -168 52 -195 34 -27 107 -27 150 0 45 27 56 76 47 204 -4 55 -10 111 -15
123 -18 47 -99 73 -167 52z m68 -156 c0 -49 3 -105 7 -127 5 -31 3 -38 -8 -34
-16 5 -36 179 -25 222 13 54 26 24 26 -61z"/>
<path d="M3646 1883 c-17 -5 -18 -14 -11 -191 4 -103 10 -191 13 -196 3 -5 47
-6 100 -3 80 6 99 10 120 29 24 23 24 25 20 163 -3 77 -10 150 -16 162 -6 11
-26 26 -43 32 -31 11 -146 13 -183 4z m128 -95 c9 -36 7 -206 -3 -213 -16 -9
-19 7 -27 123 -6 97 -5 112 8 112 9 0 18 -10 22 -22z"/>
<path d="M3351 1871 c-12 -8 -13 -35 -8 -155 8 -165 7 -167 -70 -158 -42 4
-43 5 -43 43 0 37 2 39 30 39 28 0 30 3 30 35 0 28 -4 35 -19 35 -37 0 -51 12
-51 41 0 25 4 29 29 29 37 0 42 7 34 55 l-6 38 -80 -6 c-43 -3 -83 -9 -87 -14
-4 -4 -4 -91 -1 -193 l6 -185 79 -3 c44 -2 86 0 95 4 9 3 44 7 79 8 95 2 95 3
87 211 -3 93 -9 173 -11 177 -7 11 -76 10 -93 -1z"/>
<path d="M3491 1788 c1 -51 4 -140 8 -198 l6 -105 45 3 c25 2 48 7 53 11 4 4
4 90 0 192 l-8 184 -52 3 -53 3 1 -93z"/>
<path d="M2615 1840 c-7 -12 4 -370 12 -383 6 -10 156 -2 174 8 5 4 9 22 9 41
0 33 -1 34 -41 34 l-40 0 3 38 c3 32 7 37 31 40 24 3 27 7 27 42 0 36 -2 39
-32 42 -27 2 -33 7 -32 28 0 19 7 26 32 34 29 8 32 13 32 47 l0 39 -84 0 c-47
0 -88 -4 -91 -10z"/>
<path d="M2824 1835 c-4 -8 -2 -95 2 -193 l9 -177 85 0 85 0 0 40 c0 36 -3 40
-30 45 l-30 5 -6 120 c-4 66 -7 132 -8 148 -1 26 -3 27 -51 27 -36 0 -52 -4
-56 -15z"/>
<path d="M4893 1823 c-19 -7 -16 -40 3 -47 22 -8 47 24 32 41 -11 14 -15 14
-35 6z"/>
<path d="M1866 1782 c-10 -17 6 -53 21 -48 8 3 19 6 24 6 16 0 10 38 -7 44
-21 8 -32 8 -38 -2z"/>
<path d="M4760 1636 c0 -29 36 -42 49 -18 12 25 2 42 -25 42 -19 0 -24 -5 -24
-24z"/>
<path d="M1990 1610 c-7 -13 -6 -21 4 -29 18 -15 46 -3 46 19 0 25 -38 33 -50
10z"/>
<path d="M4625 1501 c-11 -11 -4 -39 12 -45 21 -8 46 15 38 37 -6 14 -39 20
-50 8z"/>
<path d="M2132 1460 c-16 -26 15 -54 41 -36 9 7 17 22 17 33 0 26 -42 28 -58
3z"/>
<path d="M4466 1354 c-9 -25 23 -46 42 -28 8 8 11 21 8 29 -7 20 -42 19 -50
-1z"/>
<path d="M2294 1328 c-5 -18 8 -38 26 -38 16 0 30 19 25 32 -10 26 -43 29 -51
6z"/>
<path d="M4295 1252 c-9 -9 -5 -41 5 -47 17 -11 50 5 50 25 0 17 -42 34 -55
22z"/>
<path d="M2473 1214 c-3 -8 1 -23 10 -31 13 -13 17 -13 30 -2 7 7 12 21 9 31
-5 22 -40 24 -49 2z"/>
<path d="M4104 1146 c-9 -19 -8 -25 6 -34 10 -6 27 -8 39 -5 17 4 20 10 15 27
-8 25 -5 22 -29 30 -15 4 -23 -1 -31 -18z"/>
<path d="M2660 1116 c0 -27 35 -43 44 -19 12 30 6 43 -19 43 -20 0 -25 -5 -25
-24z"/>
<path d="M3902 1070 c-7 -12 -8 -20 -2 -20 5 0 10 -7 10 -16 0 -11 5 -14 16
-10 9 3 20 6 25 6 5 0 9 11 9 25 0 14 -4 25 -9 25 -5 0 -15 2 -23 5 -7 3 -19
-4 -26 -15z"/>
<path d="M2877 1069 c-23 -14 -21 -46 3 -52 26 -7 43 22 26 45 -9 12 -16 14
-29 7z"/>
<path d="M3705 1020 c-8 -26 1 -40 26 -40 28 0 37 30 14 46 -25 19 -33 18 -40
-6z"/>
<path d="M3078 1023 c-25 -6 -18 -41 10 -48 14 -3 27 -4 29 -1 8 7 -6 56 -15
55 -4 -1 -15 -3 -24 -6z"/>
<path d="M3290 997 c-23 -18 -13 -47 16 -47 17 0 24 6 24 19 0 27 -21 42 -40
28z"/>
<path d="M3499 994 c-16 -19 -4 -43 20 -41 12 1 21 4 21 8 0 4 3 14 6 22 7 20
-32 29 -47 11z"/>
</g>
</svg>
